<svg width="2000" height="1400" xmlns="http://www.w3.org/2000/svg"><defs><linearGradient id="a" gradientTransform="rotate(90)"><stop offset="5%" stop-color="#1d03ff"/><stop offset="95%" stop-color="#5542ff"/></linearGradient></defs><path fill="#efedff" d="M0 0h2000v1400H0z"/><path d="M0 700c81.23-35.77 162.461-71.541 239-65 76.539 6.541 148.385 55.395 212 75 63.615 19.605 119 9.961 193-15s166.618-65.239 252-37c85.382 28.239 163.53 124.995 232 96 68.47-28.995 127.264-183.742 192-208 64.736-24.258 135.414 81.972 208 172 72.586 90.028 147.08 163.854 238 170 90.92 6.146 198.263-55.387 240-98 41.737-42.613 17.869-66.307 34-90l-40 700H0Z" fill="url(#a)"/></svg>